<svg xmlns="http://www.w3.org/2000/svg" viewBox="0 0 100 100" width="100%" height="100%">
  <defs>
    <linearGradient id="graphite-grad" x1="0%" y1="0%" x2="100%" y2="100%">
      <stop offset="0%" stop-color="#F1F5F9" stop-opacity="0.9"/>
      <stop offset="100%" stop-color="#E2E8F0" stop-opacity="0.6"/>
    </linearGradient>
    <linearGradient id="shadow-grad" x1="0%" y1="0%" x2="0%" y2="100%">
      <stop offset="0%" stop-color="#CBD5E1" stop-opacity="0.4"/>
      <stop offset="100%" stop-color="#94A3B8" stop-opacity="0.1"/>
    </linearGradient>
    <linearGradient id="gold-grad" x1="0%" y1="0%" x2="100%" y2="100%">
      <stop offset="0%" stop-color="#FDE047"/>
      <stop offset="60%" stop-color="#EAB308"/>
      <stop offset="100%" stop-color="#CA8A04"/>
    </linearGradient>
  </defs>
  <rect x="2" y="2" width="96" height="96" rx="10" fill="#FAFAFA" stroke="#E5E7EB" stroke-width="1.5" />
  <g class="forensic-feature" stroke-linecap="round" stroke-linejoin="round">
<!-- Hoodie (Hood Up) -->
    <path d="M18 78 C14 55 18 24 50 18 C82 24 86 55 82 78 C74 76 68 72 66 65 C68 40 64 30 50 30 C36 30 32 40 34 65 C32 72 26 76 18 78 Z" fill="#334155" stroke="#0F172A" stroke-width="2.2" />
    <ellipse cx="50" cy="48" rx="16" ry="20" fill="#FAFAFA" stroke="#1E293B" stroke-width="1.8" stroke-dasharray="2 2" />
    <path d="M34 65 C32 74 34 82 36 86" stroke="#475569" stroke-width="1.5" fill="none" />
    <path d="M66 65 C68 74 66 82 64 86" stroke="#475569" stroke-width="1.5" fill="none" />
    <path d="M38 72 L38 82" stroke="#CBD5E1" stroke-width="1.8" stroke-linecap="round" />
    <path d="M62 72 L62 82" stroke="#CBD5E1" stroke-width="1.8" stroke-linecap="round" />
  </g>
</svg>