<svg xmlns="http://www.w3.org/2000/svg" viewBox="0 0 100 100" width="100%" height="100%">
  <rect x="2" y="2" width="96" height="96" rx="10" fill="#FAFAFA" stroke="#E5E7EB" stroke-width="1.5" />
  <g class="forensic-feature" stroke-linecap="round" stroke-linejoin="round">
    <!-- Skull Frame -->
    <path d="M28 42 C28 26 38 18 50 18 C62 18 72 26 72 42 L72 68 C72 78 62 82 50 82 C38 82 28 78 28 68 Z" fill="#F8FAFC" stroke="#CBD5E1" stroke-width="1.0" stroke-dasharray="2 2" />
    <!-- Rounded spherical Afro halo volume -->
    <path d="M20 48 C16 38 18 24 28 16 C38 8 62 8 72 16 C82 24 84 38 80 48 C76 42 74 36 70 34 C62 30 56 28 50 28 C44 28 38 30 30 34 C26 36 24 42 20 48 Z" fill="#334155" stroke="#0F172A" stroke-width="2.0" />
    <!-- Stippled coil textures -->
    <circle cx="34" cy="18" r="1.5" stroke="#94A3B8" stroke-width="1.0" fill="none" />
    <circle cx="50" cy="14" r="1.5" stroke="#94A3B8" stroke-width="1.0" fill="none" />
    <circle cx="66" cy="18" r="1.5" stroke="#94A3B8" stroke-width="1.0" fill="none" />
    <circle cx="26" cy="30" r="1.5" stroke="#94A3B8" stroke-width="1.0" fill="none" />
    <circle cx="74" cy="30" r="1.5" stroke="#94A3B8" stroke-width="1.0" fill="none" />
  </g>
</svg>
